%TF.GenerationSoftware,KiCad,Pcbnew,9.0.2*%
%TF.CreationDate,2026-05-02T11:11:19-04:00*%
%TF.ProjectId,blinkyboardy,626c696e-6b79-4626-9f61-7264792e6b69,rev?*%
%TF.SameCoordinates,Original*%
%TF.FileFunction,Profile,NP*%
%FSLAX46Y46*%
G04 Gerber Fmt 4.6, Leading zero omitted, Abs format (unit mm)*
G04 Created by KiCad (PCBNEW 9.0.2) date 2026-05-02 11:11:19*
%MOMM*%
%LPD*%
G01*
G04 APERTURE LIST*
%TA.AperFunction,Profile*%
%ADD10C,1.032257*%
%TD*%
G04 APERTURE END LIST*
D10*
X66410000Y-28660000D02*
X66568269Y-28668432D01*
X66721586Y-28684972D01*
X66869554Y-28709800D01*
X67063505Y-28753147D01*
X67327618Y-28804961D01*
X68017940Y-28929155D01*
X69708263Y-29225929D01*
X70289841Y-29334359D01*
X70855239Y-29466755D01*
X71406424Y-29624102D01*
X71945360Y-29807381D01*
X72474015Y-30017575D01*
X72994352Y-30255668D01*
X73508339Y-30522641D01*
X74017941Y-30819478D01*
X74525123Y-31147163D01*
X75031852Y-31506676D01*
X75540093Y-31899003D01*
X76051811Y-32325124D01*
X76568973Y-32786024D01*
X77093544Y-33282684D01*
X77627490Y-33816089D01*
X78172777Y-34387220D01*
X78746630Y-35053551D01*
X79308764Y-35759801D01*
X79861977Y-36512019D01*
X80409066Y-37316253D01*
X80952829Y-38178551D01*
X81496062Y-39104962D01*
X82041564Y-40101535D01*
X82592131Y-41174317D01*
X83150561Y-42329357D01*
X83719651Y-43572703D01*
X84302199Y-44910405D01*
X84901002Y-46348509D01*
X85518857Y-47893066D01*
X86158561Y-49550122D01*
X86822913Y-51325727D01*
X87514710Y-53225929D01*
X88824992Y-56793165D01*
X90061485Y-60057377D01*
X91247170Y-63068767D01*
X92405032Y-65877536D01*
X93558056Y-68533886D01*
X94729224Y-71088019D01*
X95941522Y-73590136D01*
X97217932Y-76090440D01*
X98003227Y-77587805D01*
X98736582Y-78907272D01*
X99422910Y-80051185D01*
X100067126Y-81021887D01*
X100374978Y-81443017D01*
X100674145Y-81821723D01*
X100965241Y-82158298D01*
X101248880Y-82453035D01*
X101525677Y-82706227D01*
X101796247Y-82918168D01*
X102061202Y-83089150D01*
X102321158Y-83219466D01*
X102576730Y-83309409D01*
X102828530Y-83359272D01*
X103077174Y-83369347D01*
X103323276Y-83339929D01*
X103567449Y-83271310D01*
X103810310Y-83163783D01*
X104052470Y-83017640D01*
X104294546Y-82833176D01*
X104537151Y-82610682D01*
X104780900Y-82350452D01*
X105026406Y-82052779D01*
X105274284Y-81717955D01*
X105779615Y-80938029D01*
X106301806Y-80013017D01*
X107255131Y-78244268D01*
X108276804Y-76450116D01*
X109338396Y-74672898D01*
X110411480Y-72954954D01*
X111467629Y-71338623D01*
X112478415Y-69866243D01*
X113415412Y-68580154D01*
X114250191Y-67522695D01*
X115527333Y-66101791D01*
X116947973Y-64746588D01*
X118495931Y-63463512D01*
X120155028Y-62258989D01*
X121909085Y-61139445D01*
X123741922Y-60111307D01*
X125637360Y-59181002D01*
X127579220Y-58354956D01*
X129551321Y-57639595D01*
X131537485Y-57041346D01*
X133521532Y-56566636D01*
X135487283Y-56221890D01*
X137418558Y-56013535D01*
X139299178Y-55947998D01*
X141112963Y-56031704D01*
X141989737Y-56131532D01*
X142843735Y-56271081D01*
X144076824Y-56529538D01*
X145353612Y-56858081D01*
X146669413Y-57254213D01*
X148019538Y-57715441D01*
X149399301Y-58239270D01*
X150804013Y-58823204D01*
X152228988Y-59464749D01*
X153669537Y-60161410D01*
X155120973Y-60910692D01*
X156578609Y-61710099D01*
X158037756Y-62557137D01*
X159493729Y-63449312D01*
X160941838Y-64384127D01*
X162377396Y-65359088D01*
X163795717Y-66371701D01*
X165192112Y-67419469D01*
X166466432Y-68430345D01*
X167661670Y-69416951D01*
X168784629Y-70387680D01*
X169842114Y-71350924D01*
X170840930Y-72315075D01*
X171787881Y-73288525D01*
X172689771Y-74279666D01*
X173553404Y-75296891D01*
X174385587Y-76348592D01*
X175193121Y-77443160D01*
X175982814Y-78588988D01*
X176761467Y-79794469D01*
X177535887Y-81067993D01*
X178312877Y-82417954D01*
X179099242Y-83852744D01*
X179901787Y-85380754D01*
X180233919Y-85995183D01*
X180589488Y-86616341D01*
X180965320Y-87240070D01*
X181358239Y-87862210D01*
X181765069Y-88478604D01*
X182182635Y-89085094D01*
X182607762Y-89677521D01*
X183037274Y-90251727D01*
X183467995Y-90803554D01*
X183896751Y-91328844D01*
X184320365Y-91823438D01*
X184735663Y-92283178D01*
X185139469Y-92703906D01*
X185528607Y-93081464D01*
X185899902Y-93411693D01*
X186250179Y-93690435D01*
X186460176Y-93835144D01*
X186683584Y-93969278D01*
X186920203Y-94092846D01*
X187169836Y-94205858D01*
X187432283Y-94308323D01*
X187707348Y-94400250D01*
X188294532Y-94552531D01*
X188929801Y-94662775D01*
X189611567Y-94731059D01*
X190338243Y-94757458D01*
X191108239Y-94742047D01*
X191919970Y-94684902D01*
X192771847Y-94586099D01*
X193662282Y-94445714D01*
X194589688Y-94263821D01*
X195552476Y-94040498D01*
X196549061Y-93775818D01*
X197577853Y-93469858D01*
X198637264Y-93122694D01*
X199913500Y-92663710D01*
X201100371Y-92208884D01*
X202212544Y-91747858D01*
X203264686Y-91270276D01*
X204271466Y-90765777D01*
X205247550Y-90224006D01*
X206207605Y-89634604D01*
X207166300Y-88987212D01*
X208138301Y-88271474D01*
X209138276Y-87477031D01*
X210180892Y-86593525D01*
X211280817Y-85610599D01*
X212452717Y-84517895D01*
X213711261Y-83305054D01*
X216546948Y-80477533D01*
X218198082Y-78828162D01*
X219764085Y-77305960D01*
X221244504Y-75911075D01*
X222638884Y-74643661D01*
X223946772Y-73503867D01*
X225167714Y-72491846D01*
X226301257Y-71607749D01*
X227346947Y-70851726D01*
X228304331Y-70223928D01*
X229172954Y-69724508D01*
X229952364Y-69353616D01*
X230642107Y-69111403D01*
X231241728Y-68998021D01*
X231507602Y-68989689D01*
X231750775Y-69013621D01*
X231971191Y-69069836D01*
X232168794Y-69158354D01*
X232343526Y-69279192D01*
X232495331Y-69432371D01*
X232582935Y-69554847D01*
X232651808Y-69690612D01*
X232701363Y-69840552D01*
X232731016Y-70005556D01*
X232740180Y-70186513D01*
X232728269Y-70384311D01*
X232694698Y-70599839D01*
X232638879Y-70833984D01*
X232560228Y-71087635D01*
X232458159Y-71361681D01*
X232332084Y-71657009D01*
X232181420Y-71974509D01*
X232005579Y-72315068D01*
X231803976Y-72679575D01*
X231576024Y-73068918D01*
X231321139Y-73483985D01*
X230728221Y-74394848D01*
X230020535Y-75419268D01*
X229193394Y-76564353D01*
X228242109Y-77837211D01*
X227161994Y-79244947D01*
X225948361Y-80794669D01*
X224596523Y-82493483D01*
X223101791Y-84348497D01*
X220738004Y-87212849D01*
X218424571Y-89865734D01*
X216157407Y-92309799D01*
X213932432Y-94547689D01*
X211745562Y-96582052D01*
X209592714Y-98415532D01*
X207469806Y-100050777D01*
X205372755Y-101490432D01*
X203297478Y-102737143D01*
X201239893Y-103793557D01*
X199195916Y-104662320D01*
X197161466Y-105346078D01*
X195132460Y-105847478D01*
X193104814Y-106169164D01*
X191074446Y-106313783D01*
X189037274Y-106283983D01*
X188373325Y-106241821D01*
X187749069Y-106191039D01*
X187154600Y-106129069D01*
X186580016Y-106053338D01*
X186015411Y-105961276D01*
X185450882Y-105850314D01*
X184876524Y-105717879D01*
X184282434Y-105561403D01*
X183658706Y-105378313D01*
X182995437Y-105166040D01*
X182282722Y-104922013D01*
X181510658Y-104643662D01*
X179748864Y-103973703D01*
X177630821Y-103135599D01*
X176182335Y-102534991D01*
X174800985Y-101979142D01*
X172372762Y-101045268D01*
X171392420Y-100689018D01*
X170612280Y-100421074D01*
X170065607Y-100252324D01*
X169785668Y-100193654D01*
X169661086Y-100202357D01*
X169548695Y-100228798D01*
X169448590Y-100273479D01*
X169360866Y-100336901D01*
X169285617Y-100419564D01*
X169222937Y-100521969D01*
X169172921Y-100644618D01*
X169135663Y-100788011D01*
X169111259Y-100952648D01*
X169099801Y-101139032D01*
X169101386Y-101347662D01*
X169116107Y-101579040D01*
X169144058Y-101833666D01*
X169185336Y-102112042D01*
X169240033Y-102414668D01*
X169308244Y-102742045D01*
X169390065Y-103094674D01*
X169485588Y-103473056D01*
X169594910Y-103877692D01*
X169718124Y-104309082D01*
X170006607Y-105254130D01*
X170351794Y-106312207D01*
X170754441Y-107487320D01*
X171215303Y-108783476D01*
X171735136Y-110204682D01*
X172314697Y-111754945D01*
X174430824Y-117329145D01*
X173140503Y-118258176D01*
X172860551Y-118440258D01*
X172492822Y-118635797D01*
X172048731Y-118841316D01*
X171539696Y-119053337D01*
X170977133Y-119268382D01*
X170372458Y-119482973D01*
X169082437Y-119896884D01*
X167760964Y-120267247D01*
X167116974Y-120427403D01*
X166499371Y-120566239D01*
X165919570Y-120680276D01*
X165388987Y-120766037D01*
X164919040Y-120820044D01*
X164521145Y-120838819D01*
X164363960Y-120833982D01*
X164211443Y-120818872D01*
X164063122Y-120792591D01*
X163918525Y-120754242D01*
X163777178Y-120702927D01*
X163638611Y-120637748D01*
X163502349Y-120557807D01*
X163367920Y-120462206D01*
X163234853Y-120350048D01*
X163102674Y-120220435D01*
X162970910Y-120072468D01*
X162839090Y-119905251D01*
X162706741Y-119717885D01*
X162573390Y-119509472D01*
X162438565Y-119279115D01*
X162301792Y-119025916D01*
X162162601Y-118748977D01*
X162020517Y-118447400D01*
X161875070Y-118120288D01*
X161725785Y-117766743D01*
X161572190Y-117385866D01*
X161413814Y-116976760D01*
X161080826Y-116070270D01*
X160723039Y-115040091D01*
X160336673Y-113879040D01*
X159917949Y-112579934D01*
X159463085Y-111135591D01*
X158846806Y-109191513D01*
X158292522Y-107522486D01*
X157796907Y-106131382D01*
X157356636Y-105021074D01*
X156968380Y-104194436D01*
X156792719Y-103888391D01*
X156628814Y-103654340D01*
X156476250Y-103492643D01*
X156334610Y-103403660D01*
X156203480Y-103387748D01*
X156082443Y-103445267D01*
X155971084Y-103576577D01*
X155868986Y-103782036D01*
X155775734Y-104062004D01*
X155690911Y-104416839D01*
X155544893Y-105352550D01*
X155427605Y-106592041D01*
X155335720Y-108138184D01*
X155265912Y-109993854D01*
X155179218Y-114645265D01*
X155132343Y-117648996D01*
X155090874Y-118869346D01*
X155026799Y-119920267D01*
X154932180Y-120815441D01*
X154799077Y-121568553D01*
X154715614Y-121896113D01*
X154619553Y-122193289D01*
X154509902Y-122461792D01*
X154385669Y-122703332D01*
X154245862Y-122919620D01*
X154089487Y-123112367D01*
X153915553Y-123283283D01*
X153723068Y-123434078D01*
X153511039Y-123566464D01*
X153278473Y-123682150D01*
X153024379Y-123782848D01*
X152747764Y-123870268D01*
X152123003Y-124012115D01*
X151396251Y-124121376D01*
X149605019Y-124296880D01*
X148644435Y-124359582D01*
X147842924Y-124392041D01*
X147497095Y-124396552D01*
X147185364Y-124393050D01*
X146905840Y-124381381D01*
X146656634Y-124361396D01*
X146435856Y-124332944D01*
X146241615Y-124295872D01*
X146072021Y-124250030D01*
X145925184Y-124195267D01*
X145799213Y-124131432D01*
X145692220Y-124058372D01*
X145602313Y-123975938D01*
X145527603Y-123883977D01*
X145479267Y-123770331D01*
X145431232Y-123586901D01*
X145383803Y-123337695D01*
X145337281Y-123026720D01*
X145248168Y-122235490D01*
X145166313Y-121245269D01*
X145094136Y-120088111D01*
X145034055Y-118796074D01*
X144988491Y-117401214D01*
X144959862Y-115935587D01*
X144896152Y-110517850D01*
X144857342Y-108904343D01*
X144798572Y-107858175D01*
X144758111Y-107509662D01*
X144708350Y-107257167D01*
X144647854Y-107085418D01*
X144575185Y-106979143D01*
X144488907Y-106923070D01*
X144387584Y-106901926D01*
X144134056Y-106903337D01*
X144094153Y-106905136D01*
X144051924Y-106910469D01*
X144007465Y-106919242D01*
X143960871Y-106931361D01*
X143861652Y-106965257D01*
X143755024Y-107011401D01*
X143641743Y-107069037D01*
X143522565Y-107137409D01*
X143398245Y-107215761D01*
X143269541Y-107303337D01*
X143137207Y-107399380D01*
X143002001Y-107503135D01*
X142864677Y-107613845D01*
X142725993Y-107730756D01*
X142586704Y-107853109D01*
X142447566Y-107980150D01*
X142309335Y-108111123D01*
X142172768Y-108245271D01*
X141741115Y-108683930D01*
X141296155Y-109090835D01*
X140835470Y-109466893D01*
X140356639Y-109813012D01*
X139857243Y-110130098D01*
X139334864Y-110419060D01*
X138787081Y-110680803D01*
X138211475Y-110916236D01*
X137605628Y-111126266D01*
X136967120Y-111311800D01*
X136293531Y-111473746D01*
X135582442Y-111613010D01*
X134831434Y-111730500D01*
X134038087Y-111827123D01*
X133199983Y-111903786D01*
X132314701Y-111961397D01*
X131082243Y-112039522D01*
X130080832Y-112121880D01*
X129289906Y-112212707D01*
X128966947Y-112262619D01*
X128688898Y-112316235D01*
X128453188Y-112374085D01*
X128257245Y-112436699D01*
X128098501Y-112504604D01*
X127974383Y-112578331D01*
X127882321Y-112658410D01*
X127819746Y-112745368D01*
X127784085Y-112839735D01*
X127772770Y-112942041D01*
X127781679Y-113060602D01*
X127807750Y-113239722D01*
X127907447Y-113765427D01*
X128064000Y-114490729D01*
X128269544Y-115387201D01*
X128796156Y-117579944D01*
X129424381Y-120116239D01*
X129860571Y-121796580D01*
X130204219Y-123213817D01*
X130459562Y-124390328D01*
X130630832Y-125348492D01*
X130686263Y-125752688D01*
X130722263Y-126110689D01*
X130739363Y-126425293D01*
X130738090Y-126699297D01*
X130718974Y-126935499D01*
X130682545Y-127136696D01*
X130629332Y-127305685D01*
X130559864Y-127445264D01*
X130470698Y-127563998D01*
X130349758Y-127687477D01*
X130020953Y-127945869D01*
X129590232Y-128214845D01*
X129074380Y-128488812D01*
X128490181Y-128762173D01*
X127854420Y-129029335D01*
X127183880Y-129284703D01*
X126495346Y-129522682D01*
X125805603Y-129737676D01*
X125131434Y-129924093D01*
X124489624Y-130076335D01*
X123896958Y-130188810D01*
X123370218Y-130255922D01*
X122926191Y-130272076D01*
X122740439Y-130259296D01*
X122581660Y-130231678D01*
X122451950Y-130188523D01*
X122353409Y-130129133D01*
X122318946Y-130094857D01*
X122283349Y-130050290D01*
X122209055Y-129931451D01*
X122131131Y-129774962D01*
X122050184Y-129583165D01*
X121966818Y-129358405D01*
X121881637Y-129103025D01*
X121795246Y-128819368D01*
X121708251Y-128509779D01*
X121621256Y-128176602D01*
X121534865Y-127822179D01*
X121449684Y-127448855D01*
X121366318Y-127058974D01*
X121285371Y-126654880D01*
X121207448Y-126238915D01*
X121133154Y-125813424D01*
X121063093Y-125380750D01*
X120877219Y-124154088D01*
X120669646Y-122956155D01*
X120442869Y-121793908D01*
X120199384Y-120674301D01*
X119941684Y-119604291D01*
X119672266Y-118590834D01*
X119393624Y-117640884D01*
X119108254Y-116761398D01*
X118818649Y-115959331D01*
X118527305Y-115241639D01*
X118236718Y-114615278D01*
X117949382Y-114087203D01*
X117667791Y-113664370D01*
X117394442Y-113353735D01*
X117131829Y-113162252D01*
X117005328Y-113113368D01*
X116882446Y-113096880D01*
X116858409Y-113109027D01*
X116834702Y-113145065D01*
X116788394Y-113286396D01*
X116743750Y-113516033D01*
X116700995Y-113829139D01*
X116660357Y-114220873D01*
X116622064Y-114686398D01*
X116553415Y-115819463D01*
X116496862Y-117189625D01*
X116454221Y-118758174D01*
X116427306Y-120486400D01*
X116417931Y-122335592D01*
X116418233Y-125623092D01*
X116391318Y-128071075D01*
X116354612Y-129024855D01*
X116295451Y-129822284D01*
X116208619Y-130481205D01*
X116088899Y-131019460D01*
X115931074Y-131454893D01*
X115729927Y-131805347D01*
X115480243Y-132088663D01*
X115176803Y-132322685D01*
X114814391Y-132525257D01*
X114387792Y-132714219D01*
X113321159Y-133122690D01*
X112166195Y-133553536D01*
X111136281Y-133915431D01*
X110225822Y-134205955D01*
X109429224Y-134422688D01*
X108740893Y-134563212D01*
X108435578Y-134604139D01*
X108155233Y-134625107D01*
X107899156Y-134625812D01*
X107666649Y-134605953D01*
X107457013Y-134565227D01*
X107269547Y-134503332D01*
X107103554Y-134419965D01*
X106958333Y-134314824D01*
X106833185Y-134187606D01*
X106727410Y-134038009D01*
X106640310Y-133865730D01*
X106571185Y-133670468D01*
X106519336Y-133451919D01*
X106484064Y-133209782D01*
X106464668Y-132943753D01*
X106460450Y-132653531D01*
X106494749Y-131999296D01*
X106581367Y-131244658D01*
X106714708Y-130387197D01*
X106828116Y-129615323D01*
X106934869Y-128605747D01*
X107033156Y-127401414D01*
X107121160Y-126045266D01*
X107197067Y-124580247D01*
X107259063Y-123049301D01*
X107305333Y-121495371D01*
X107334063Y-119961400D01*
X107385675Y-112580751D01*
X104701801Y-110258173D01*
X103529890Y-109134812D01*
X102318436Y-107798698D01*
X101069030Y-106252404D01*
X99783257Y-104498498D01*
X98462705Y-102539552D01*
X97108964Y-100378137D01*
X95723619Y-98016822D01*
X94308259Y-95458178D01*
X92864471Y-92704776D01*
X91393844Y-89759187D01*
X89897964Y-86623980D01*
X88378420Y-83301727D01*
X86836799Y-79794998D01*
X85274690Y-76106364D01*
X83693679Y-72238395D01*
X82095354Y-68193662D01*
X79501808Y-61529152D01*
X78074390Y-57923508D01*
X76521166Y-54051734D01*
X76212573Y-53308526D01*
X75888707Y-52572198D01*
X75206650Y-51138024D01*
X74497981Y-49784900D01*
X73785682Y-48548509D01*
X73435354Y-47985241D01*
X73092738Y-47464538D01*
X72760707Y-46990861D01*
X72442133Y-46568671D01*
X72139890Y-46202429D01*
X71856850Y-45896595D01*
X71595888Y-45655630D01*
X71359875Y-45483995D01*
X71139247Y-45366126D01*
X70940016Y-45264437D01*
X70759384Y-45179381D01*
X70594553Y-45111411D01*
X70517189Y-45083976D01*
X70442726Y-45060983D01*
X70370815Y-45042488D01*
X70301106Y-45028548D01*
X70233249Y-45019220D01*
X70166894Y-45014561D01*
X70101693Y-45014627D01*
X70037295Y-45019475D01*
X69973351Y-45029162D01*
X69909510Y-45043744D01*
X69845424Y-45063279D01*
X69780742Y-45087822D01*
X69715116Y-45117431D01*
X69648195Y-45152162D01*
X69579629Y-45192072D01*
X69509069Y-45237218D01*
X69360568Y-45343443D01*
X69199895Y-45471291D01*
X69024252Y-45621217D01*
X68830842Y-45793672D01*
X68327201Y-46207646D01*
X67770258Y-46596595D01*
X67168406Y-46958477D01*
X66530037Y-47291251D01*
X65863543Y-47592877D01*
X65177316Y-47861311D01*
X64479748Y-48094514D01*
X63779231Y-48290444D01*
X63084158Y-48447059D01*
X62402921Y-48562319D01*
X61743911Y-48634181D01*
X61115522Y-48660605D01*
X60526145Y-48639549D01*
X59984172Y-48568972D01*
X59733584Y-48514475D01*
X59497995Y-48446832D01*
X59278453Y-48365789D01*
X59076007Y-48271089D01*
X58784928Y-48112481D01*
X58511693Y-47946379D01*
X58256299Y-47772849D01*
X58018749Y-47591956D01*
X57799041Y-47403768D01*
X57597176Y-47208350D01*
X57413154Y-47005769D01*
X57246975Y-46796090D01*
X57098638Y-46579379D01*
X56968144Y-46355704D01*
X56855493Y-46125130D01*
X56760685Y-45887723D01*
X56683719Y-45643549D01*
X56624596Y-45392675D01*
X56583316Y-45135166D01*
X56559878Y-44871089D01*
X56554283Y-44600511D01*
X56566531Y-44323496D01*
X56596622Y-44040112D01*
X56644556Y-43750424D01*
X56710332Y-43454499D01*
X56793951Y-43152403D01*
X56895413Y-42844201D01*
X57014717Y-42529961D01*
X57151864Y-42209747D01*
X57306854Y-41883628D01*
X57479687Y-41551668D01*
X57670362Y-41213933D01*
X57878880Y-40870490D01*
X58105241Y-40521406D01*
X58349445Y-40166745D01*
X58611491Y-39806575D01*
X59247882Y-38948106D01*
X59509109Y-38578600D01*
X59734877Y-38242057D01*
X59927077Y-37933337D01*
X60087599Y-37647299D01*
X60218332Y-37378801D01*
X60321167Y-37122702D01*
X60397994Y-36873861D01*
X60450703Y-36627137D01*
X60481185Y-36377390D01*
X60491328Y-36119476D01*
X60483024Y-35848257D01*
X60458163Y-35558590D01*
X60418634Y-35245334D01*
X60366328Y-34903348D01*
X60322931Y-34578651D01*
X60290119Y-34279962D01*
X60268798Y-34004256D01*
X60259877Y-33748511D01*
X60264262Y-33509701D01*
X60282861Y-33284802D01*
X60316581Y-33070790D01*
X60366329Y-32864641D01*
X60433012Y-32663330D01*
X60517539Y-32463835D01*
X60620815Y-32263129D01*
X60743749Y-32058190D01*
X60887247Y-31845992D01*
X61052217Y-31623513D01*
X61239566Y-31387727D01*
X61450201Y-31135610D01*
X61715196Y-30841292D01*
X62004838Y-30559298D01*
X62315952Y-30291064D01*
X62645362Y-30038027D01*
X62989893Y-29801623D01*
X63346370Y-29583289D01*
X63711617Y-29384460D01*
X64082458Y-29206575D01*
X64455719Y-29051068D01*
X64828224Y-28919377D01*
X65196798Y-28812938D01*
X65558264Y-28733187D01*
X65909449Y-28681562D01*
X66247175Y-28659498D01*
X66410000Y-28660000D01*
M02*
