M48
; DRILL file {KiCad 9.0.2} date 2026-05-02T11:11:26-0400
; FORMAT={-:-/ absolute / metric / decimal}
; #@! TF.CreationDate,2026-05-02T11:11:26-04:00
; #@! TF.GenerationSoftware,Kicad,Pcbnew,9.0.2
; #@! TF.FileFunction,Plated,1,2,PTH
FMAT,2
METRIC
; #@! TA.AperFunction,Plated,PTH,ComponentDrill
T1C0.787
; #@! TA.AperFunction,Plated,PTH,ComponentDrill
T2C0.800
; #@! TA.AperFunction,Plated,PTH,ComponentDrill
T3C0.850
; #@! TA.AperFunction,Plated,PTH,ComponentDrill
T4C0.900
; #@! TA.AperFunction,Plated,PTH,ComponentDrill
T5C1.000
%
G90
G05
T1
X133.18Y-68.92
X133.18Y-71.46
X133.18Y-74.0
X133.18Y-76.54
X133.18Y-79.08
X133.18Y-81.62
X133.18Y-84.16
X133.18Y-86.7
X140.8Y-68.92
X140.8Y-71.46
X140.8Y-74.0
X140.8Y-76.54
X140.8Y-79.08
X140.8Y-81.62
X140.8Y-84.16
X140.8Y-86.7
T2
X65.84Y-35.29
X67.84Y-35.29
X116.39Y-96.96
X124.01Y-96.96
X132.37Y-96.76
X139.99Y-96.76
X167.005Y-84.17
X167.005Y-86.71
X167.005Y-89.25
X167.005Y-91.79
X174.625Y-84.17
X174.625Y-86.71
X174.625Y-89.25
X174.625Y-91.79
T3
X151.85Y-84.145
X154.39Y-84.145
X156.93Y-84.145
T4
X108.91Y-82.52
X111.45Y-82.52
X112.67Y-76.26
X115.21Y-76.26
X116.44Y-70.85
X118.98Y-70.85
X121.16Y-65.7
X123.7Y-65.7
X126.89Y-62.39
X129.43Y-62.39
X133.16Y-60.44
X135.7Y-60.44
X140.08Y-60.29
X142.62Y-60.29
X146.55Y-62.56
X149.09Y-62.56
X152.63Y-65.43
X155.17Y-65.43
X158.55Y-68.89
X161.09Y-68.89
T5
X148.15Y-93.86
X153.15Y-93.86
X161.54Y-96.59
X161.54Y-99.13
X163.02Y-76.4
M30
