%TF.GenerationSoftware,KiCad,Pcbnew,9.0.2*%
%TF.CreationDate,2026-05-02T11:11:19-04:00*%
%TF.ProjectId,blinkyboardy,626c696e-6b79-4626-9f61-7264792e6b69,rev?*%
%TF.SameCoordinates,Original*%
%TF.FileFunction,Copper,L1,Top*%
%TF.FilePolarity,Positive*%
%FSLAX46Y46*%
G04 Gerber Fmt 4.6, Leading zero omitted, Abs format (unit mm)*
G04 Created by KiCad (PCBNEW 9.0.2) date 2026-05-02 11:11:19*
%MOMM*%
%LPD*%
G01*
G04 APERTURE LIST*
G04 Aperture macros list*
%AMRoundRect*
0 Rectangle with rounded corners*
0 $1 Rounding radius*
0 $2 $3 $4 $5 $6 $7 $8 $9 X,Y pos of 4 corners*
0 Add a 4 corners polygon primitive as box body*
4,1,4,$2,$3,$4,$5,$6,$7,$8,$9,$2,$3,0*
0 Add four circle primitives for the rounded corners*
1,1,$1+$1,$2,$3*
1,1,$1+$1,$4,$5*
1,1,$1+$1,$6,$7*
1,1,$1+$1,$8,$9*
0 Add four rect primitives between the rounded corners*
20,1,$1+$1,$2,$3,$4,$5,0*
20,1,$1+$1,$4,$5,$6,$7,0*
20,1,$1+$1,$6,$7,$8,$9,0*
20,1,$1+$1,$8,$9,$2,$3,0*%
G04 Aperture macros list end*
%TA.AperFunction,ComponentPad*%
%ADD10RoundRect,0.250000X-0.550000X-0.550000X0.550000X-0.550000X0.550000X0.550000X-0.550000X0.550000X0*%
%TD*%
%TA.AperFunction,ComponentPad*%
%ADD11C,1.600000*%
%TD*%
%TA.AperFunction,ComponentPad*%
%ADD12R,1.800000X1.800000*%
%TD*%
%TA.AperFunction,ComponentPad*%
%ADD13C,1.800000*%
%TD*%
%TA.AperFunction,ComponentPad*%
%ADD14R,1.700000X1.700000*%
%TD*%
%TA.AperFunction,ComponentPad*%
%ADD15C,1.700000*%
%TD*%
%TA.AperFunction,ComponentPad*%
%ADD16C,2.000000*%
%TD*%
%TA.AperFunction,ComponentPad*%
%ADD17RoundRect,0.412500X-0.412500X-0.412500X0.412500X-0.412500X0.412500X0.412500X-0.412500X0.412500X0*%
%TD*%
%TA.AperFunction,ComponentPad*%
%ADD18C,1.650000*%
%TD*%
%TA.AperFunction,ComponentPad*%
%ADD19R,1.295400X1.295400*%
%TD*%
%TA.AperFunction,ComponentPad*%
%ADD20C,1.295400*%
%TD*%
%TA.AperFunction,Conductor*%
%ADD21C,0.200000*%
%TD*%
G04 APERTURE END LIST*
D10*
%TO.P,C1,1*%
%TO.N,GND*%
X65840000Y-35290000D03*
D11*
%TO.P,C1,2*%
%TO.N,TR*%
X67840000Y-35290000D03*
%TD*%
D12*
%TO.P,D8,1,K*%
%TO.N,Net-(D8-K)*%
X112670000Y-76260000D03*
D13*
%TO.P,D8,2,A*%
%TO.N,Net-(D1-A)*%
X115210000Y-76260000D03*
%TD*%
D11*
%TO.P,R1,1*%
%TO.N,+5V*%
X132370000Y-96760000D03*
%TO.P,R1,2*%
%TO.N,Net-(U1-DIS)*%
X139990000Y-96760000D03*
%TD*%
D14*
%TO.P,J1,1,Pin_1*%
%TO.N,+5V*%
X161540000Y-96590000D03*
D15*
%TO.P,J1,2,Pin_2*%
%TO.N,GND*%
X161540000Y-99130000D03*
%TD*%
D12*
%TO.P,D2,1,K*%
%TO.N,Net-(D2-K)*%
X133160000Y-60440000D03*
D13*
%TO.P,D2,2,A*%
%TO.N,Net-(D1-A)*%
X135700000Y-60440000D03*
%TD*%
D12*
%TO.P,D5,1,K*%
%TO.N,Net-(D5-K)*%
X152630000Y-65430000D03*
D13*
%TO.P,D5,2,A*%
%TO.N,Net-(D1-A)*%
X155170000Y-65430000D03*
%TD*%
D11*
%TO.P,R2,1*%
%TO.N,Net-(D1-A)*%
X116390000Y-96960000D03*
%TO.P,R2,2*%
%TO.N,GND*%
X124010000Y-96960000D03*
%TD*%
D16*
%TO.P,C2,1*%
%TO.N,GND*%
X148150000Y-93860000D03*
%TO.P,C2,2*%
%TO.N,Net-(U1-CV)*%
X153150000Y-93860000D03*
%TD*%
D17*
%TO.P,RV1,1,1*%
%TO.N,Net-(U1-DIS)*%
X151850225Y-84145000D03*
D18*
%TO.P,RV1,2,2*%
X154390225Y-84145000D03*
%TO.P,RV1,3,3*%
%TO.N,TR*%
X156930225Y-84145000D03*
%TD*%
D12*
%TO.P,D4,1,K*%
%TO.N,Net-(D4-K)*%
X108910000Y-82520000D03*
D13*
%TO.P,D4,2,A*%
%TO.N,Net-(D1-A)*%
X111450000Y-82520000D03*
%TD*%
D12*
%TO.P,D1,1,K*%
%TO.N,Net-(D1-K)*%
X126890000Y-62390000D03*
D13*
%TO.P,D1,2,A*%
%TO.N,Net-(D1-A)*%
X129430000Y-62390000D03*
%TD*%
D19*
%TO.P,U2,1,Q5*%
%TO.N,Net-(D6-K)*%
X133180000Y-68920000D03*
D20*
%TO.P,U2,2,Q1*%
%TO.N,Net-(D2-K)*%
X133180000Y-71460000D03*
%TO.P,U2,3,Q0*%
%TO.N,Net-(D1-K)*%
X133180000Y-74000000D03*
%TO.P,U2,4,Q2*%
%TO.N,Net-(D3-K)*%
X133180000Y-76540000D03*
%TO.P,U2,5,Q6*%
%TO.N,Net-(D7-K)*%
X133180000Y-79080000D03*
%TO.P,U2,6,Q7*%
%TO.N,Net-(D8-K)*%
X133180000Y-81620000D03*
%TO.P,U2,7,Q3*%
%TO.N,Net-(D4-K)*%
X133180000Y-84160000D03*
%TO.P,U2,8,VSS*%
%TO.N,GND*%
X133180000Y-86700000D03*
%TO.P,U2,9,Q8*%
%TO.N,Net-(D9-K)*%
X140800000Y-86700000D03*
%TO.P,U2,10,Q4*%
%TO.N,Net-(D5-K)*%
X140800000Y-84160000D03*
%TO.P,U2,11,Q9*%
%TO.N,Net-(D10-K)*%
X140800000Y-81620000D03*
%TO.P,U2,12,Cout*%
%TO.N,unconnected-(U2-Cout-Pad12)*%
X140800000Y-79080000D03*
%TO.P,U2,13,CKEN*%
%TO.N,GND*%
X140800000Y-76540000D03*
%TO.P,U2,14,CLK*%
%TO.N,OUT*%
X140800000Y-74000000D03*
%TO.P,U2,15,Reset*%
%TO.N,GND*%
X140800000Y-71460000D03*
%TO.P,U2,16,VDD*%
%TO.N,+5V*%
X140800000Y-68920000D03*
%TD*%
D10*
%TO.P,U1,1,GND*%
%TO.N,GND*%
X167005000Y-84170000D03*
D11*
%TO.P,U1,2,TR*%
%TO.N,TR*%
X167005000Y-86710000D03*
%TO.P,U1,3,Q*%
%TO.N,OUT*%
X167005000Y-89250000D03*
%TO.P,U1,4,R*%
%TO.N,+5V*%
X167005000Y-91790000D03*
%TO.P,U1,5,CV*%
%TO.N,Net-(U1-CV)*%
X174625000Y-91790000D03*
%TO.P,U1,6,THR*%
%TO.N,TR*%
X174625000Y-89250000D03*
%TO.P,U1,7,DIS*%
%TO.N,Net-(U1-DIS)*%
X174625000Y-86710000D03*
%TO.P,U1,8,VCC*%
%TO.N,+5V*%
X174625000Y-84170000D03*
%TD*%
D12*
%TO.P,D7,1,K*%
%TO.N,Net-(D7-K)*%
X116440000Y-70850000D03*
D13*
%TO.P,D7,2,A*%
%TO.N,Net-(D1-A)*%
X118980000Y-70850000D03*
%TD*%
D12*
%TO.P,D6,1,K*%
%TO.N,Net-(D6-K)*%
X140080000Y-60290000D03*
D13*
%TO.P,D6,2,A*%
%TO.N,Net-(D1-A)*%
X142620000Y-60290000D03*
%TD*%
D12*
%TO.P,D10,1,K*%
%TO.N,Net-(D10-K)*%
X146550000Y-62560000D03*
D13*
%TO.P,D10,2,A*%
%TO.N,Net-(D1-A)*%
X149090000Y-62560000D03*
%TD*%
D12*
%TO.P,D9,1,K*%
%TO.N,Net-(D9-K)*%
X158550000Y-68890000D03*
D13*
%TO.P,D9,2,A*%
%TO.N,Net-(D1-A)*%
X161090000Y-68890000D03*
%TD*%
D12*
%TO.P,D3,1,K*%
%TO.N,Net-(D3-K)*%
X121160000Y-65700000D03*
D13*
%TO.P,D3,2,A*%
%TO.N,Net-(D1-A)*%
X123700000Y-65700000D03*
%TD*%
D14*
%TO.P,J2,1,Pin_1*%
%TO.N,OUT*%
X163020000Y-76400000D03*
%TD*%
D21*
%TO.N,GND*%
X133182950Y-99130000D02*
X161540000Y-99130000D01*
X122132950Y-88080000D02*
X133182950Y-99130000D01*
X99550000Y-88080000D02*
X122132950Y-88080000D01*
X88230000Y-76760000D02*
X99550000Y-88080000D01*
X88230000Y-58000000D02*
X88230000Y-76760000D01*
X65840000Y-35610000D02*
X88230000Y-58000000D01*
X65840000Y-35290000D02*
X65840000Y-35610000D01*
X115320000Y-88270000D02*
X124010000Y-96960000D01*
X95660000Y-88270000D02*
X115320000Y-88270000D01*
X83540000Y-51210000D02*
X83540000Y-64370000D01*
X95660000Y-76490000D02*
X95660000Y-88270000D01*
X81760000Y-51210000D02*
X83540000Y-51210000D01*
X65840000Y-35290000D02*
X81760000Y-51210000D01*
X83540000Y-64370000D02*
X95660000Y-76490000D01*
%TO.N,OUT*%
X141748700Y-74948700D02*
X140800000Y-74000000D01*
X141748700Y-80104200D02*
X141748700Y-74948700D01*
X141181600Y-80671300D02*
X141748700Y-80104200D01*
X140407035Y-80671300D02*
X141181600Y-80671300D01*
X139851300Y-81227035D02*
X140407035Y-80671300D01*
X139851300Y-87092965D02*
X139851300Y-81227035D01*
X140407035Y-87648700D02*
X139851300Y-87092965D01*
X141192965Y-87648700D02*
X140407035Y-87648700D01*
X152441665Y-76400000D02*
X141192965Y-87648700D01*
X163020000Y-76400000D02*
X152441665Y-76400000D01*
%TO.N,GND*%
X165854000Y-83019000D02*
X167005000Y-84170000D01*
X139533950Y-97861000D02*
X133180000Y-91507050D01*
X133471000Y-97216050D02*
X133471000Y-86991000D01*
X124911000Y-97861000D02*
X132826050Y-97861000D01*
X133471000Y-86991000D02*
X133180000Y-86700000D01*
X162070000Y-98450000D02*
X162070000Y-98780000D01*
X162070000Y-98780000D02*
X162000000Y-98850000D01*
X144149000Y-97861000D02*
X139533950Y-97861000D01*
X148150000Y-93860000D02*
X155804225Y-86205775D01*
X148150000Y-93860000D02*
X152340000Y-98050000D01*
X160460000Y-98050000D02*
X161540000Y-99130000D01*
X132826050Y-97861000D02*
X133471000Y-97216050D01*
X152340000Y-98050000D02*
X160460000Y-98050000D01*
X155804225Y-83678595D02*
X156463820Y-83019000D01*
X124010000Y-96960000D02*
X124911000Y-97861000D01*
X133180000Y-91507050D02*
X133180000Y-86700000D01*
X155804225Y-86205775D02*
X155804225Y-83678595D01*
X148150000Y-93860000D02*
X144149000Y-97861000D01*
X156463820Y-83019000D02*
X165854000Y-83019000D01*
%TO.N,TR*%
X163474225Y-90689000D02*
X173186000Y-90689000D01*
X173186000Y-90689000D02*
X174625000Y-89250000D01*
X159495225Y-86710000D02*
X167005000Y-86710000D01*
X156930225Y-84145000D02*
X163474225Y-90689000D01*
X156930225Y-84145000D02*
X159495225Y-86710000D01*
%TO.N,Net-(D1-A)*%
X152300000Y-62560000D02*
X155170000Y-65430000D01*
X129430000Y-62390000D02*
X133750000Y-62390000D01*
X111450000Y-82520000D02*
X111450000Y-80020000D01*
X141419000Y-61491000D02*
X142620000Y-60290000D01*
X119711000Y-100281000D02*
X162016760Y-100281000D01*
X172780000Y-96960000D02*
X176581000Y-93159000D01*
X123700000Y-66130000D02*
X123700000Y-65700000D01*
X176581000Y-93159000D02*
X176581000Y-80873900D01*
X116390000Y-96960000D02*
X119711000Y-100281000D01*
X165337760Y-96960000D02*
X172780000Y-96960000D01*
X176581000Y-80873900D02*
X164597100Y-68890000D01*
X111450000Y-80020000D02*
X115210000Y-76260000D01*
X133750000Y-62390000D02*
X135700000Y-60440000D01*
X142620000Y-60290000D02*
X146820000Y-60290000D01*
X149090000Y-62560000D02*
X152300000Y-62560000D01*
X164597100Y-68890000D02*
X161090000Y-68890000D01*
X136751000Y-61491000D02*
X141419000Y-61491000D01*
X118980000Y-70850000D02*
X123700000Y-66130000D01*
X126120000Y-65700000D02*
X129430000Y-62390000D01*
X162016760Y-100281000D02*
X165337760Y-96960000D01*
X123700000Y-65700000D02*
X126120000Y-65700000D01*
X115210000Y-74620000D02*
X118980000Y-70850000D01*
X157630000Y-65430000D02*
X161090000Y-68890000D01*
X135700000Y-60440000D02*
X136751000Y-61491000D01*
X115210000Y-76260000D02*
X115210000Y-74620000D01*
X146820000Y-60290000D02*
X149090000Y-62560000D01*
X155170000Y-65430000D02*
X157630000Y-65430000D01*
%TO.N,Net-(D4-K)*%
X110550000Y-84160000D02*
X108910000Y-82520000D01*
X133180000Y-84160000D02*
X110550000Y-84160000D01*
%TO.N,Net-(D5-K)*%
X152630000Y-72330000D02*
X140800000Y-84160000D01*
X152630000Y-65430000D02*
X152630000Y-72330000D01*
%TO.N,Net-(D7-K)*%
X134128700Y-80028700D02*
X133180000Y-79080000D01*
X107709000Y-83721000D02*
X109096700Y-85108700D01*
X134128700Y-84552965D02*
X134128700Y-80028700D01*
X116440000Y-70850000D02*
X115678000Y-70850000D01*
X133572965Y-85108700D02*
X134128700Y-84552965D01*
X115678000Y-70850000D02*
X107709000Y-78819000D01*
X107709000Y-78819000D02*
X107709000Y-83721000D01*
X109096700Y-85108700D02*
X133572965Y-85108700D01*
%TO.N,Net-(D8-K)*%
X131079000Y-83721000D02*
X133180000Y-81620000D01*
X110249000Y-78681000D02*
X110249000Y-83017471D01*
X110249000Y-83017471D02*
X110952529Y-83721000D01*
X112670000Y-76260000D02*
X110249000Y-78681000D01*
X110952529Y-83721000D02*
X131079000Y-83721000D01*
%TO.N,Net-(D9-K)*%
X158550000Y-68890000D02*
X158550000Y-68950000D01*
X158550000Y-68950000D02*
X140800000Y-86700000D01*
%TO.N,Net-(D10-K)*%
X146550000Y-75870000D02*
X140800000Y-81620000D01*
X146550000Y-62560000D02*
X146550000Y-75870000D01*
%TO.N,+5V*%
X132370000Y-96760000D02*
X129480000Y-93870000D01*
X172231000Y-96559000D02*
X175726000Y-93064000D01*
X175726000Y-93064000D02*
X175726000Y-88455950D01*
X133739065Y-85509700D02*
X139851300Y-79397465D01*
X174168950Y-87811000D02*
X173524000Y-87166050D01*
X139851300Y-79397465D02*
X139851300Y-69868700D01*
X175081050Y-87811000D02*
X174168950Y-87811000D01*
X162205000Y-96590000D02*
X167005000Y-91790000D01*
X129480000Y-93870000D02*
X129480000Y-85509700D01*
X161540000Y-96590000D02*
X162205000Y-96590000D01*
X161540000Y-96590000D02*
X161571000Y-96559000D01*
X173524000Y-85271000D02*
X174625000Y-84170000D01*
X161571000Y-96559000D02*
X172231000Y-96559000D01*
X129480000Y-85509700D02*
X133739065Y-85509700D01*
X139851300Y-69868700D02*
X140800000Y-68920000D01*
X173524000Y-87166050D02*
X173524000Y-85271000D01*
X175726000Y-88455950D02*
X175081050Y-87811000D01*
%TO.N,Net-(U1-DIS)*%
X152605000Y-84145000D02*
X139990000Y-96760000D01*
X151850225Y-84145000D02*
X151850225Y-84899775D01*
X154390225Y-84145000D02*
X157495225Y-81040000D01*
X176180000Y-85155000D02*
X174625000Y-86710000D01*
X176180000Y-81040000D02*
X176180000Y-85155000D01*
X151850225Y-84899775D02*
X139990000Y-96760000D01*
X151850225Y-84145000D02*
X154390225Y-84145000D01*
X154390225Y-84145000D02*
X152605000Y-84145000D01*
X157495225Y-81040000D02*
X176180000Y-81040000D01*
%TD*%
M02*
