%TF.GenerationSoftware,KiCad,Pcbnew,9.0.2*%
%TF.CreationDate,2026-05-02T11:11:19-04:00*%
%TF.ProjectId,blinkyboardy,626c696e-6b79-4626-9f61-7264792e6b69,rev?*%
%TF.SameCoordinates,Original*%
%TF.FileFunction,Soldermask,Bot*%
%TF.FilePolarity,Negative*%
%FSLAX46Y46*%
G04 Gerber Fmt 4.6, Leading zero omitted, Abs format (unit mm)*
G04 Created by KiCad (PCBNEW 9.0.2) date 2026-05-02 11:11:19*
%MOMM*%
%LPD*%
G01*
G04 APERTURE LIST*
G04 Aperture macros list*
%AMRoundRect*
0 Rectangle with rounded corners*
0 $1 Rounding radius*
0 $2 $3 $4 $5 $6 $7 $8 $9 X,Y pos of 4 corners*
0 Add a 4 corners polygon primitive as box body*
4,1,4,$2,$3,$4,$5,$6,$7,$8,$9,$2,$3,0*
0 Add four circle primitives for the rounded corners*
1,1,$1+$1,$2,$3*
1,1,$1+$1,$4,$5*
1,1,$1+$1,$6,$7*
1,1,$1+$1,$8,$9*
0 Add four rect primitives between the rounded corners*
20,1,$1+$1,$2,$3,$4,$5,0*
20,1,$1+$1,$4,$5,$6,$7,0*
20,1,$1+$1,$6,$7,$8,$9,0*
20,1,$1+$1,$8,$9,$2,$3,0*%
G04 Aperture macros list end*
%ADD10RoundRect,0.250000X-0.550000X-0.550000X0.550000X-0.550000X0.550000X0.550000X-0.550000X0.550000X0*%
%ADD11C,1.600000*%
%ADD12R,1.800000X1.800000*%
%ADD13C,1.800000*%
%ADD14R,1.700000X1.700000*%
%ADD15C,1.700000*%
%ADD16C,2.000000*%
%ADD17RoundRect,0.412500X-0.412500X-0.412500X0.412500X-0.412500X0.412500X0.412500X-0.412500X0.412500X0*%
%ADD18C,1.650000*%
%ADD19R,1.295400X1.295400*%
%ADD20C,1.295400*%
G04 APERTURE END LIST*
D10*
%TO.C,C1*%
X65840000Y-35290000D03*
D11*
X67840000Y-35290000D03*
%TD*%
D12*
%TO.C,D8*%
X112670000Y-76260000D03*
D13*
X115210000Y-76260000D03*
%TD*%
D11*
%TO.C,R1*%
X132370000Y-96760000D03*
X139990000Y-96760000D03*
%TD*%
D14*
%TO.C,J1*%
X161540000Y-96590000D03*
D15*
X161540000Y-99130000D03*
%TD*%
D12*
%TO.C,D2*%
X133160000Y-60440000D03*
D13*
X135700000Y-60440000D03*
%TD*%
D12*
%TO.C,D5*%
X152630000Y-65430000D03*
D13*
X155170000Y-65430000D03*
%TD*%
D11*
%TO.C,R2*%
X116390000Y-96960000D03*
X124010000Y-96960000D03*
%TD*%
D16*
%TO.C,C2*%
X148150000Y-93860000D03*
X153150000Y-93860000D03*
%TD*%
D17*
%TO.C,RV1*%
X151850225Y-84145000D03*
D18*
X154390225Y-84145000D03*
X156930225Y-84145000D03*
%TD*%
D12*
%TO.C,D4*%
X108910000Y-82520000D03*
D13*
X111450000Y-82520000D03*
%TD*%
D12*
%TO.C,D1*%
X126890000Y-62390000D03*
D13*
X129430000Y-62390000D03*
%TD*%
D19*
%TO.C,U2*%
X133180000Y-68920000D03*
D20*
X133180000Y-71460000D03*
X133180000Y-74000000D03*
X133180000Y-76540000D03*
X133180000Y-79080000D03*
X133180000Y-81620000D03*
X133180000Y-84160000D03*
X133180000Y-86700000D03*
X140800000Y-86700000D03*
X140800000Y-84160000D03*
X140800000Y-81620000D03*
X140800000Y-79080000D03*
X140800000Y-76540000D03*
X140800000Y-74000000D03*
X140800000Y-71460000D03*
X140800000Y-68920000D03*
%TD*%
D10*
%TO.C,U1*%
X167005000Y-84170000D03*
D11*
X167005000Y-86710000D03*
X167005000Y-89250000D03*
X167005000Y-91790000D03*
X174625000Y-91790000D03*
X174625000Y-89250000D03*
X174625000Y-86710000D03*
X174625000Y-84170000D03*
%TD*%
D12*
%TO.C,D7*%
X116440000Y-70850000D03*
D13*
X118980000Y-70850000D03*
%TD*%
D12*
%TO.C,D6*%
X140080000Y-60290000D03*
D13*
X142620000Y-60290000D03*
%TD*%
D12*
%TO.C,D10*%
X146550000Y-62560000D03*
D13*
X149090000Y-62560000D03*
%TD*%
D12*
%TO.C,D9*%
X158550000Y-68890000D03*
D13*
X161090000Y-68890000D03*
%TD*%
D12*
%TO.C,D3*%
X121160000Y-65700000D03*
D13*
X123700000Y-65700000D03*
%TD*%
D14*
%TO.C,J2*%
X163020000Y-76400000D03*
%TD*%
M02*
